<svg t="1723619811711" class="icon" viewBox="0 0 1024 1024" version="1.1"
    xmlns="http://www.w3.org/2000/svg" p-id="7418" width="24" height="24">
    <path d="M512 0C277.333333 0 85.333333 192 85.333333 426.666667c0 123.733333 46.933333 221.866667 153.6 328.533333 89.6 89.6 132.266667 149.333333 162.133334 187.733333 34.133333 46.933333 55.466667 81.066667 110.933333 81.066667s76.8-34.133333 110.933333-81.066667c29.866667-38.4 72.533333-102.4 162.133334-187.733333 106.666667-106.666667 153.6-204.8 153.6-328.533333 0-234.666667-192-426.666667-426.666667-426.666667z m213.333333 695.466667c-93.866667 93.866667-140.8 157.866667-170.666666 200.533333-29.866667 42.666667-34.133333 42.666667-42.666667 42.666667s-12.8 0-42.666667-42.666667-76.8-106.666667-170.666666-200.533333-128-170.666667-128-268.8c0-187.733333 153.6-341.333333 341.333333-341.333334s341.333333 153.6 341.333333 341.333334c0 98.133333-38.4 174.933333-128 268.8z" p-id="7419" fill="#2c2c2c"></path>
    <path d="M460.8 221.866667c-21.333333 0-34.133333 17.066667-34.133333 34.133333v93.866667h-34.133334c-64 0-119.466667 51.2-119.466666 119.466666s51.2 119.466667 119.466666 119.466667h64c17.066667 0 34.133333-12.8 34.133334-34.133333V256c0-17.066667-12.8-34.133333-29.866667-34.133333zM341.333333 469.333333c0-29.866667 25.6-51.2 51.2-51.2h34.133334v106.666667h-34.133334C366.933333 520.533333 341.333333 499.2 341.333333 469.333333zM716.8 349.866667c-21.333333 0-34.133333 17.066667-34.133333 34.133333v93.866667c0 25.6-17.066667 42.666667-42.666667 42.666666s-42.666667-17.066667-42.666667-42.666666V384c0-17.066667-12.8-34.133333-34.133333-34.133333s-29.866667 17.066667-29.866667 34.133333v93.866667c0 59.733333 46.933333 106.666667 106.666667 106.666666s106.666667-46.933333 106.666667-106.666666V384c0-17.066667-12.8-34.133333-29.866667-34.133333z" p-id="7420" fill="#2c2c2c"></path>
</svg>