<?xml version="1.0" standalone="no"?><!DOCTYPE svg PUBLIC "-//W3C//DTD SVG 1.1//EN" "http://www.w3.org/Graphics/SVG/1.1/DTD/svg11.dtd">
<svg t="1723188172868" class="icon" viewBox="0 0 1032 1024" version="1.1"
    xmlns="http://www.w3.org/2000/svg" p-id="4422"
    xmlns:xlink="http://www.w3.org/1999/xlink" width="401.5625" height="200">
    <path d="M652.940518 452.001707a73.505191 73.505191 0 0 1-111.295378 95.871059c-14.671913-15.569945-21.358616-36.649443-19.501873-57.838161l-3.009623 5.24257 1.322778-0.679593-9.125954-5.242569a73.48092 73.48092 0 0 1-60.119649 79.949182c-36.406731 6.771652-73.298886-16.310216-83.589856-51.794643a74.027021 74.027021 0 0 1 12.912255-66.187438c2.038777-2.560607 2.499929-6.067789 0-8.579853-2.11159-2.11159-6.528941-2.572742-8.579854 0a87.06063 87.06063 0 0 0-18.045603 69.17279 85.68931 85.68931 0 0 0 90.652762 70.386347 85.555819 85.555819 0 0 0 78.881251-92.958521c-0.41261-4.672197-4.854231-7.439109-9.125954-5.242569-3.288741 1.67471-4.186774 3.919791-4.465892 7.524058a80.204029 80.204029 0 0 0-0.133492 9.805546 88.589713 88.589713 0 0 0 2.330031 16.431572 84.014601 84.014601 0 0 0 13.021474 28.761318 85.640768 85.640768 0 0 0 152.471392-25.205594c7.851718-27.062337 1.407727-56.102773-16.031098-77.995354-2.038777-2.560607-6.443991-2.135862-8.579853 0-2.536336 2.536336-2.050913 6.067789 0 8.579853z" fill="#2c2c2c" p-id="4423"></path>
    <path d="M816.819352 511.356814q0 12.463238-0.982982 24.890069-0.473288 6.067789-1.213558 12.038493l-0.364067 2.985352c-0.279118 2.257217 0.364067-2.548471-0.084949 0.606779q-0.41261 2.961081-0.885897 5.922161a310.027589 310.027589 0 0 1-11.201138 46.758379q-3.640673 11.091918-8.033752 21.844039c-0.546101 1.322778-0.995117 2.730505-0.21844 0.546101-0.315525 0.910168-0.764541 1.78393-1.140745 2.669827q-1.213558 2.851861-2.536335 5.667314-2.427115 5.254705-5.024129 10.424461a312.066366 312.066366 0 0 1-23.967765 39.73188 98.795734 98.795734 0 0 1-7.05077 9.550699c1.298507-1.419863 0.764541-0.982982-0.109221 0.133491l-1.783929 2.245082q-1.917421 2.427115-3.883385 4.757146-7.281346 8.798293-15.266556 16.989808t-16.771368 16.152453q-4.271723 3.810571-8.676938 7.475516-2.208675 1.832472-4.441621 3.640673l-2.245082 1.78393-0.970846 0.752406c-1.213558 1.007253 2.427115-1.808201 0.182034-0.145627a321.592795 321.592795 0 0 1-38.833847 25.314814q-10.303105 5.67945-21.006684 10.570087-2.427115 1.116473-4.914909 2.19654c-0.885897 0.388338-1.759659 0.825219-2.669827 1.140744 0 0 2.257217-0.934439 0.982982-0.424745l-1.917421 0.788812q-5.388196 2.208675-10.861342 4.19891A309.457217 309.457217 0 0 1 575.236417 805.389713q-6.067789 1.213558-12.135577 2.172269-2.74264 0.436881-5.497416 0.825219c-3.143114 0.436881 1.662574-0.194169-0.606779 0.084949l-3.410097 0.412609q-12.281204 1.431998-24.635222 1.89315a315.646362 315.646362 0 0 1-49.19763-1.990234l-2.985352-0.376203c-1.407727-0.169898 1.104338 0.157763 1.104338 0.145627-0.558237 0-1.140744-0.157763-1.698981-0.230576q-2.961081-0.424745-5.922162-0.898033-5.885755-0.946575-11.735103-2.123726-11.795781-2.427115-23.385257-5.655179t-22.669258-7.378431q-5.46101-2.014506-10.849206-4.235316c-0.497559-0.206305-1.067931-0.388338-1.529083-0.63105 0 0 2.232946 0.970846 0.982982 0.412609l-2.669827-1.152879q-2.657691-1.213558-5.291112-2.427116a311.423181 311.423181 0 0 1-41.01825-22.742071c-6.261958-4.113961-13.118559-8.264328-18.688789-13.349135 2.427115 2.160133 0.169898 0.121356-0.449016-0.364068l-2.245082-1.783929q-2.427115-1.917421-4.745011-3.883385-4.393079-3.640673-8.652666-7.487651a313.862432 313.862432 0 0 1-31.965111-33.275753q-1.820337-2.208675-3.640673-4.441621l-1.771794-2.245082c-0.254847-0.315525-0.533965-0.63105-0.752406-0.970846 0.376203 0.570372 1.334913 1.747523 0.400474 0.509694-2.427115-3.15525-4.745011-6.334771-7.026499-9.57497q-6.747381-9.550699-12.754492-19.598957t-11.091917-20.011567q-2.597014-5.169756-4.999858-10.436596-1.213558-2.63342-2.354302-5.291112c-0.182034-0.424745-1.407727-3.361555-0.691728-1.601896l-0.813083-2.00237a309.457217 309.457217 0 0 1-14.429202-44.986585q-2.791183-11.795781-4.623654-23.749324c-0.291254-1.832472-0.558237-3.640673-0.813084-5.509552-0.315525-2.220811 0.291254 2.281489-0.072814-0.606779q-0.21844-1.711116-0.412609-3.410097-0.691728-6.067789-1.15288-12.038493a316.374496 316.374496 0 0 1 0.097085-49.343257q0.497559-6.237687 1.213557-12.451102c0.121356-0.995117 0.303389-1.990235 0.376203-2.985352-0.133491 2.026641-0.182034 1.286371 0-0.169898q0.449016-3.179521 0.970846-6.346907 1.941692-11.941408 4.854231-23.700782a321.459303 321.459303 0 0 1 14.659777-44.901635c1.055795-2.597014-0.643186 1.456269 0.218441-0.546101l0.982982-2.281489q1.213558-2.839725 2.548471-5.667314 2.512064-5.436739 5.230433-10.776393 5.230434-10.278834 11.213274-20.145058t12.851576-19.526143q1.541218-2.172268 3.130979-4.30813l1.711116-2.293624c0.266983-0.364067 2.427115-3.118843 1.286371-1.698981s0.715999-0.910168 1.067931-1.347049l1.78393-2.245082q1.917421-2.427115 3.89552-4.745011a313.862432 313.862432 0 0 1 32.135009-33.105854q4.271723-3.798436 8.689073-7.451245 2.208675-1.820337 4.453757-3.640673l1.929556-1.516947a5.98284 5.98284 0 0 1 0.776677-0.606779c6.213416-4.696468 12.560322-9.198767 19.089263-13.446219a311.362503 311.362503 0 0 1 40.775539-22.365869q2.63342-1.213558 5.303248-2.354302c0.752406-0.327661 3.397962-1.759659 0.533965-0.242711a32.535482 32.535482 0 0 1 3.070301-1.213558q5.400332-2.184404 10.92202-4.174639 11.019104-3.992605 22.317326-7.147855 11.601612-3.240199 23.421664-5.558094 5.849348-1.15288 11.747238-2.075184c1.978099-0.315525 3.956198-0.594643 5.934298-0.873761l-1.104338 0.145627c0.558237 0 1.140744-0.145627 1.698981-0.218441l3.422233-0.412609a316.204598 316.204598 0 0 1 49.234036-1.723252q12.329746 0.533965 24.598815 2.026641c0.84949 0.10922 1.698981 0.254847 2.560607 0.327661-3.37369-0.254847-0.21844 0 0.594643 0.084949q3.179521 0.449016 6.334771 0.970846 5.885755 0.970846 11.722968 2.160133a309.457217 309.457217 0 0 1 45.884617 13.154965c3.640673 1.347049 7.281346 2.791183 10.837071 4.259588 2.038777 0.837355-2.281489-0.995117 0.546101 0.230576l2.281488 0.995117q2.839725 1.213558 5.655179 2.548471 10.667172 4.93918 20.946006 10.679308 10.048258 5.606637 19.659635 11.941408 4.963451 3.276606 9.793411 6.735246 2.160133 1.553354 4.30813 3.130978l2.293624 1.711117c1.007253 0.764541 2.997488 2.050913 0.788812 0.594643 6.371178 4.223181 12.208391 9.854089 17.86357 14.963167s11.128324 10.436596 16.4073 15.946148 10.533681 11.419578 15.460726 17.414553q1.820337 2.208675 3.640673 4.453757l1.516947 1.929557c0.424745 0.546101 1.504812 1.577625-0.388339-0.509694 0.364067 0.400474 0.667457 0.873762 0.995118 1.298506q3.470775 4.562977 6.771652 9.259446a311.884333 311.884333 0 0 1 23.9799 40.144489q2.584878 5.181891 4.975587 10.448732 1.213558 2.645556 2.342166 5.303247c0.570372 1.322778 0.995117 1.868879 0.072814 0.157763a31.176298 31.176298 0 0 1 1.213557 3.070301q4.465892 11.006968 8.082295 22.341597a310.282437 310.282437 0 0 1 10.922019 46.442854c0.303389 1.965963 0.691728 3.956198 0.861626 5.934297-0.206305-2.427115-0.121356-0.84949 0.060678 0.606779q0.182034 1.492676 0.351932 2.985352 0.655321 5.800806 1.104337 11.613747 0.910168 11.98995 0.910169 24.016308c0 6.346907 5.57023 12.426831 12.135577 12.135577a12.341882 12.341882 0 0 0 12.135577-12.135577 322.260251 322.260251 0 0 0-59.233752-186.717991 332.150747 332.150747 0 0 0-68.735909-71.199431 323.631571 323.631571 0 0 0-445.375682 51.224271 331.192036 331.192036 0 0 0-50.908746 85.167481 321.277269 321.277269 0 0 0-22.7178 97.084617 325.148519 325.148519 0 0 0 8.288599 101.465561 324.54174 324.54174 0 0 0 180.431761 217.882152 329.408106 329.408106 0 0 0 97.861294 27.038066 324.990756 324.990756 0 0 0 101.938848-4.526571 321.277269 321.277269 0 0 0 92.109031-34.198056 325.17279 325.17279 0 0 0 132.277791-138.345579 320.379237 320.379237 0 0 0 30.07196-94.038588 338.655416 338.655416 0 0 0 4.029012-50.775255c0-6.346907-5.582365-12.426831-12.135577-12.135577a12.354018 12.354018 0 0 0-12.087035 12.135577zM505.978679 12.147713v100.919459c0 6.346907 5.582365 12.426831 12.135577 12.135577a12.341882 12.341882 0 0 0 12.135577-12.135577V12.147713c0-6.346907-5.582365-12.426831-12.135577-12.135577a12.341882 12.341882 0 0 0-12.135577 12.135577zM505.311222 910.932828v100.919459c0 6.346907 5.582365 12.426831 12.135577 12.135577a12.341882 12.341882 0 0 0 12.135577-12.135577v-100.919459c0-6.346907-5.582365-12.426831-12.135577-12.135577a12.341882 12.341882 0 0 0-12.135577 12.135577zM12.145638 523.14046h104.839251c6.346907 0 12.426831-5.582365 12.135577-12.135577a12.341882 12.341882 0 0 0-12.135577-12.135577H12.145638c-6.346907 0-12.426831 5.582365-12.135578 12.135577a12.341882 12.341882 0 0 0 12.135578 12.135577zM915.056849 523.14046h104.839251c6.346907 0 12.426831-5.582365 12.135577-12.135577a12.341882 12.341882 0 0 0-12.135577-12.135577h-104.839251c-6.346907 0-12.426831 5.582365-12.135577 12.135577a12.341882 12.341882 0 0 0 12.135577 12.135577zM143.828785 175.565395l62.510358 62.522493 8.846836 8.846836c4.490164 4.490164 12.73022 4.854231 17.159706 0a12.354018 12.354018 0 0 0 0-17.159706l-62.522494-62.5589-8.846835-8.846836c-4.490164-4.490164-12.73022-4.854231-17.159706 0a12.354018 12.354018 0 0 0 0 17.159706zM782.560617 815.00109l62.522494 62.522494 8.846836 8.846836c4.490164 4.490164 12.73022 4.854231 17.159706 0a12.354018 12.354018 0 0 0 0-17.159707l-62.522494-62.522493-8.846836-8.846836c-4.490164-4.490164-12.73022-4.854231-17.159706 0a12.354018 12.354018 0 0 0 0 17.159706zM847.06121 137.30192l-62.510358 62.522493-8.846836 8.846836c-4.490164 4.490164-4.854231 12.73022 0 17.159706a12.354018 12.354018 0 0 0 17.159706 0l62.510358-62.522493 8.846836-8.846836c4.490164-4.490164 4.854231-12.73022 0-17.159706a12.354018 12.354018 0 0 0-17.159706 0zM211.751611 773.910026l-62.558901 62.510358-8.846835 8.846836c-4.490164 4.490164-4.854231 12.73022 0 17.159706a12.354018 12.354018 0 0 0 17.159706 0l62.510358-62.522494 8.846835-8.846835c4.490164-4.490164 4.854231-12.73022 0-17.159707a12.354018 12.354018 0 0 0-17.159706 0z" fill="#2c2c2c" p-id="4424"></path>
</svg>