<svg t="1724031413016" class="icon" viewBox="0 0 1024 1024" version="1.1"
    xmlns="http://www.w3.org/2000/svg" p-id="5188" width="24" height="24">
    <path d="M223.94 831.74V615.55c0-17.06 13.83-30.88 30.88-30.88 17.06 0 30.88 13.83 30.88 30.88v216.18c0 17.06-13.83 30.88-30.88 30.88-17.05 0.01-30.88-13.82-30.88-30.87zM594.54 542.64H378.36c-17.06 0-30.88-13.83-30.88-30.88 0-17.06 13.83-30.88 30.88-30.88h216.18c17.06 0 30.88 13.83 30.88 30.88 0 17.05-13.82 30.88-30.88 30.88z" p-id="5189" fill="#2c2c2c"></path>
    <path d="M627.42 862.62H252.83c-15.95 0-28.89-12.93-28.89-28.89v-3.99c0-15.95 12.93-28.89 28.89-28.89h374.59c15.95 0 28.89 12.93 28.89 28.89v3.99c0 15.96-12.94 28.89-28.89 28.89zM328.95 635.28H180.71c-27.29 0-49.41-22.12-49.41-49.41V437.63c0-27.29 22.12-49.41 49.41-49.41h148.24c27.29 0 49.41 22.12 49.41 49.41v148.24c0 27.29-22.12 49.41-49.41 49.41z m-12.36-86.47v-74.12c0-13.65-11.06-24.71-24.71-24.71h-74.12c-13.65 0-24.71 11.06-24.71 24.71v74.12c0 13.65 11.06 24.71 24.71 24.71h74.12c13.65 0 24.71-11.06 24.71-24.71zM693.37 372.78v-92.65c0-17.06 13.83-30.88 30.88-30.88 17.06 0 30.88 13.83 30.88 30.88v92.65c0 17.06-13.83 30.88-30.88 30.88-17.06 0-30.88-13.83-30.88-30.88zM693.37 743.38v-92.65c0-17.06 13.83-30.88 30.88-30.88 17.06 0 30.88 13.83 30.88 30.88v92.65c0 17.06-13.83 30.88-30.88 30.88-17.06 0-30.88-13.83-30.88-30.88z" p-id="5190" fill="#2c2c2c"></path>
    <path d="M847.78 187.48c0 68.23-55.31 123.53-123.53 123.53S600.72 255.7 600.72 187.48 656.03 63.95 724.25 63.95s123.53 55.3 123.53 123.53z m-123.53-61.77c-34.11 0-61.77 27.65-61.77 61.77s27.65 61.77 61.77 61.77 61.77-27.65 61.77-61.77-27.66-61.77-61.77-61.77zM847.78 836.03c0 68.23-55.31 123.53-123.53 123.53s-123.53-55.31-123.53-123.53S656.03 712.5 724.25 712.5s123.53 55.3 123.53 123.53z m-123.53-61.77c-34.11 0-61.77 27.65-61.77 61.77s27.65 61.77 61.77 61.77 61.77-27.65 61.77-61.77-27.66-61.77-61.77-61.77zM689.31 657.95L584.49 553.13c-19.3-19.3-19.3-50.58 0-69.88l104.82-104.82c19.3-19.3 50.58-19.3 69.88 0l104.82 104.82c19.3 19.3 19.3 50.58 0 69.88L759.19 657.95c-19.3 19.29-50.58 19.29-69.88 0z m52.41-69.88l52.41-52.41c9.65-9.65 9.65-25.29 0-34.94l-52.41-52.41c-9.65-9.65-25.29-9.65-34.94 0l-52.41 52.41c-9.65 9.65-9.65 25.29 0 34.94l52.41 52.41c9.65 9.65 25.29 9.65 34.94 0z" p-id="5191" fill="#2c2c2c"></path>
</svg>