<?xml version="1.0" standalone="no"?><!DOCTYPE svg PUBLIC "-//W3C//DTD SVG 1.1//EN" "http://www.w3.org/Graphics/SVG/1.1/DTD/svg11.dtd">
<svg t="1723173024959" class="icon" viewBox="0 0 1024 1024" version="1.1"
    xmlns="http://www.w3.org/2000/svg" p-id="4471"
    xmlns:xlink="http://www.w3.org/1999/xlink" width="200" height="200">
    <path d="M379.226202 259.253718c-20.795896 0-38.392423 16.796685-38.392423 38.392423v323.936074c-62.387688 12.797474-106.379007 69.586268-103.179639 132.773798-1.599684 73.585478 56.788793 135.173324 130.374272 136.773008h7.198579c75.185163 2.399526 138.372693-56.788793 140.77222-131.973956v-4.799052c1.599684-61.587846-39.192266-115.977113-99.180428-131.174114V297.646141c0-20.795896-16.796685-38.392423-37.592581-38.392423z m166.367169-101.579954C541.59416 67.2916 465.609155-3.094509 375.226991 0.104859 284.044985-3.094509 208.059981 67.2916 204.06077 157.673764v376.725656c-74.385321 47.990529-119.976323 130.374271-120.776166 219.15675 7.998422 154.369536 137.572851 274.34586 291.942387 270.346649 154.369536 3.999211 283.943965-115.977113 291.942387-270.346649-0.799842-88.782479-46.390845-171.166221-120.776165-219.15675l-0.799842-376.725656zM151.271188 753.55617c0.799842-79.984216 47.990529-151.97001 120.776165-184.763538V157.673764c2.399526-54.389267 47.990529-95.981059 102.379796-94.381374 54.389267-1.599684 99.98027 39.992108 102.379796 94.381374v411.118868c72.785636 32.793528 119.976323 103.97948 120.776166 183.963696-4.799053 119.176481-104.779322 211.158329-223.155962 207.159119-117.576797 3.999211-217.557066-87.982637-223.155961-206.359277z m430.31508-366.327707c0 70.38611 56.788793 127.174903 127.174902 127.174903s127.174903-56.788793 127.174903-127.174903-56.788793-127.174903-127.174903-127.174903-127.174903 56.788793-127.174902 127.174903z m338.333232-21.595738h-41.591792c-11.997632 0-20.795896 9.598106-20.795897 20.795896 0 11.997632 9.598106 20.795896 20.795897 20.795896h41.591792c11.997632 0 20.795896-9.598106 20.795896-20.795896 0-11.19779-9.598106-20.795896-20.795896-20.795896zM708.76117 239.257664c11.19779 0.799842 21.595738-7.998422 22.395581-19.196212V176.070134c0-11.997632-9.598106-20.795896-20.795896-20.795896-11.997632 0-20.795896 9.598106-20.795896 20.795896v41.591792c0 11.997632 9.598106 20.795896 20.795896 20.795896l-1.599685 0.799842z m0 295.141756c-11.997632 0-20.795896 9.598106-20.795896 20.795896v42.391634c0 11.997632 9.598106 20.795896 20.795896 20.795896 11.997632 0 20.795896-9.598106 20.795896-20.795896v-41.591792c0.799842-11.19779-8.798264-20.795896-20.795896-21.595738z m136.773009-249.550753l29.59416-29.59416c8.798264-7.998422 9.598106-22.39558 1.599684-31.193844s-22.39558-9.598106-31.193844-1.599684l-29.59416 29.594159c-8.798264 7.998422-9.598106 22.39558-1.599684 31.193845s21.595738 9.598106 31.193844 1.599684z m0 208.758803c-7.198579-8.798264-20.795896-10.397948-29.59416-3.199369s-10.397948 20.795896-3.199368 29.59416c0.799842 1.599684 2.399526 2.399526 3.199368 3.199368l29.59416 29.59416c7.198579 8.798264 20.795896 10.397948 29.59416 3.199369s10.397948-20.795896 3.199369-29.59416c-0.799842-1.599684-2.399526-2.399526-3.199369-3.199369l-29.59416-29.594159z" fill="" p-id="4472"></path>
</svg>