<?xml version="1.0" standalone="no"?><!DOCTYPE svg PUBLIC "-//W3C//DTD SVG 1.1//EN" "http://www.w3.org/Graphics/SVG/1.1/DTD/svg11.dtd">
<svg t="1723189019582" class="icon" viewBox="0 0 1024 1024" version="1.1"
    xmlns="http://www.w3.org/2000/svg" p-id="5799"
    xmlns:xlink="http://www.w3.org/1999/xlink" width="200" height="200">
    <path d="M621.2 827.2H285.4c-96.2 0-174.6-78.4-174.6-174.6v-26.8c0-87.8 78.4-165.4 171.4-173.8 24.8-70.8 92-121.6 171.2-121.6s146.6 51 171.2 121.6c93 8.4 171.4 86 171.4 173.8v26.8c0 96.2-78.4 174.6-174.8 174.6zM272.8 493.6c-66.4 12.2-121.8 69.8-121.8 132v26.8c0 74.2 60.2 134.4 134.4 134.4h335.8c74.2 0 134.4-60.2 134.4-134.4v-26.8c0-62.4-55.2-119.8-121.8-132-11.4-2.6-19.8-4.6-41.6-6.2-11.4-66.4-69.4-117-139-117-70.4 0-129 51.8-139.4 119.4-9.2 0-21.2 0.4-41 3.8z" fill="#2c2c2c" p-id="5800"></path>
    <path d="M757.6 566.2c-10.8 1.4-21-5.6-23.6-16.4-2.6-11.4 4.4-23 16-25.6 3.8-0.8 7.6-2 11.4-3 39.6-12.4 72.2-39.6 91.4-76.6 12.6-24 18.4-50.2 17.8-76.4-19.6 16.4-43.6 27.4-69.2 31-75.6 10-145.2-42-156-117.2a134.4 134.4 0 0 1 3.2-52.2c-52 24.2-87.8 76-90 135.8-0.4 11.8-10.2 21-22 20.6-11.8-0.4-21-10.4-20.6-22.2 3.4-95.4 74.6-175 169-189.4 8.6-1.2 17 2.6 21.4 10.2 4.4 7.4 4 16.8-1.2 23.8-14.6 19.6-20.8 43.6-17.6 67.8 7.2 51.4 55 87.8 106.8 80.8 0.4 0 0.6 0 1-0.2 29.2-4.2 55.4-22 69.8-47.8 4.2-7.4 12.2-11.6 20.8-10.8 8.4 0.8 15.6 6.8 18.2 14.8 15.8 50.6 11.2 104.4-13.4 151.4s-66 81.6-116.4 97.6c-4.8 1.6-9.6 2.8-14.4 4-1-0.2-1.8-0.2-2.4 0z" fill="#2c2c2c" p-id="5801"></path>
</svg>