<?xml version="1.0" standalone="no"?><!DOCTYPE svg PUBLIC "-//W3C//DTD SVG 1.1//EN" "http://www.w3.org/Graphics/SVG/1.1/DTD/svg11.dtd">
<svg t="1723182215186" class="icon" viewBox="0 0 1024 1024" version="1.1"
    xmlns="http://www.w3.org/2000/svg" p-id="5292"
    xmlns:xlink="http://www.w3.org/1999/xlink" width="200" height="200">
    <path d="M512 62C416.375 62 320.75 95.75 242 152L191.375 202.625V101.375c0-11.25-11.25-22.5-22.5-22.5S146.375 90.125 146.375 101.375v151.875c0 5.625 0 11.25 5.625 16.875s11.25 5.625 16.875 5.625h135c11.25 0 22.5-11.25 22.5-22.5S315.125 230.75 303.875 230.75l-73.125-5.625c11.25-11.25 28.125-22.5 39.375-33.75C343.25 140.75 422 112.625 512 112.625c219.375 0 405 180 405 405S737 917 512 917C292.625 917 112.625 737 112.625 512c0-11.25-11.25-22.5-22.5-22.5-16.875 0-28.125 11.25-28.125 22.5 0 247.5 202.5 450 450 450s450-202.5 450-450S759.5 62 512 62z" fill="" p-id="5293"></path>
    <path d="M450.125 562.625L624.5 669.5c5.625 5.625 11.25 5.625 16.875 5.625 11.25 0 22.5-5.625 28.125-16.875 11.25-16.875 5.625-33.75-11.25-45L495.125 523.25V303.875c0-16.875-16.875-33.75-33.75-33.75S427.625 287 427.625 303.875V540.125c5.625 11.25 11.25 16.875 22.5 22.5z" fill="" p-id="5294"></path>
</svg>