<?xml version="1.0" standalone="no"?><!DOCTYPE svg PUBLIC "-//W3C//DTD SVG 1.1//EN" "http://www.w3.org/Graphics/SVG/1.1/DTD/svg11.dtd">
<svg t="1723174056108" class="icon" viewBox="0 0 1182 1024" version="1.1"
    xmlns="http://www.w3.org/2000/svg" p-id="6778"
    xmlns:xlink="http://www.w3.org/1999/xlink" width="230.859375" height="200">
    <path d="M1010.192537 319.177172C973.265601 135.987457 801.475071 0 602.872374 0c-195.873315 0-363.007839 128.441518-405.072437 307.296331A287.387896 287.387896 0 0 0 0 575.417999c0 157.019755 134.221386 284.819066 299.108184 284.819066a70.642835 70.642835 0 0 0 14.128567-1.605519 380.186892 380.186892 0 0 0 379.865789-379.705237 32.110379 32.110379 0 0 0-64.220759 0 315.805582 315.805582 0 0 1-314.039511 315.484478h-1.766071a32.110379 32.110379 0 0 0-13.968015 1.926623C169.542803 796.016306 64.220759 696.955786 64.220759 575.417999a223.809345 223.809345 0 0 1 169.542803-211.928504A32.110379 32.110379 0 0 0 256.883035 338.122295C285.621825 179.497021 431.081844 64.220759 602.872374 64.220759s322.709313 121.537786 347.113201 282.731891a32.110379 32.110379 0 0 0 20.390091 25.367199A219.795547 219.795547 0 0 1 1118.243964 577.98683c0 119.611163-99.702728 216.263405-227.020383 220.277203a32.110379 32.110379 0 0 0 0.963311 64.220758h0.963312c162.317968-5.137661 288.993415-130.047037 288.993415-284.497961a282.410787 282.410787 0 0 0-171.951082-258.809658z" fill="#000000" p-id="6779"></path>
    <path d="M826.521167 463.352775a32.110379 32.110379 0 0 0-32.11038 32.11038 465.600502 465.600502 0 0 1-464.476638 464.316086 32.110379 32.110379 0 1 0 0 64.220759 529.821261 529.821261 0 0 0 528.697397-528.536845 32.110379 32.110379 0 0 0-32.110379-32.11038z" fill="#000000" p-id="6780"></path>
</svg>